<svg width="200" height="200" viewBox="0 0 152 150" fill="none" xmlns="http://www.w3.org/2000/svg">
<path d="M151.5 75C151.5 116.139 117.704 149.5 76 149.5C34.2962 149.5 0.5 116.139 0.5 75C0.5 33.861 34.2962 0.5 76 0.5C117.704 0.5 151.5 33.861 151.5 75Z" fill="white" stroke="black"/>
<ellipse cx="76.4578" cy="75" rx="46.241" ry="43.75" fill="#805137"/>
<path d="M105.717 75.4464C105.717 90.1694 92.6598 102.179 76.4578 102.179C60.2558 102.179 47.1988 90.1694 47.1988 75.4464C47.1988 60.7235 60.2558 48.7143 76.4578 48.7143C92.6598 48.7143 105.717 60.7235 105.717 75.4464Z" fill="black" stroke="black"/>
<ellipse cx="55.3976" cy="56.6964" rx="14.1928" ry="12.9464" fill="white"/>
</svg>
